<svg xmlns="http://www.w3.org/2000/svg" version="1.1" xmlns:xlink="http://www.w3.org/1999/xlink" xmlns:svgjs="http://svgjs.dev/svgjs" width="100%" height="100%" viewBox="0 0 1000 600"><rect width="1000" height="600" x="0" y="0" fill="#555555"/><g><rect width="333.3333333333333" height="333.3333333333333" rx="13.333333333333334" ry="13.333333333333334" y="215.57770788478848" fill="#222222" transform="matrix(0.6464777066203358,0,0,0.6464777066203359,0,52.88754376245919)" x="193.35546875"/><path d="M259.99246455889977 454.609583487673L241.45728026019228 454.609583487673L241.45728026019228 309.91259928470504L259.99246455889977 309.91259928470504L259.99246455889977 370.5732024441115L320.4079743722076 370.5732024441115L320.4079743722076 309.91259928470504L338.94315867091507 309.91259928470504L338.94315867091507 454.609583487673L320.4079743722076 454.609583487673L320.4079743722076 386.44299660399656L259.99246455889977 386.44299660399656L259.99246455889977 454.609583487673ZM433.79428361107784 457.244336958233L433.79428361107784 457.244336958233Q420.34478624391653 457.244336958233 408.88667231380646 452.1892866949492Q397.397921715434 447.103599763403 388.91156460676956 437.51432259729484Q380.4252074981051 427.9250454311866 375.55397724439524 413.92408803530344Q370.71338365894763 399.89249397115793 370.71338365894763 382.24577305205787L370.71338365894763 382.24577305205787Q370.71338365894763 364.8441454790564 375.55397724439524 350.9350980879602Q380.4252074981051 337.026050696864 389.03411127981883 327.34486352596883Q397.61237839327026 317.63303968681134 409.53004234731526 312.4554427504782Q421.4477063013603 307.24720914588266 435.57121037029276 307.24720914588266L435.57121037029276 307.24720914588266Q448.59179438178154 307.24720914588266 458.60998490356224 312.54735275526514Q468.6588120936053 317.8474963646476 475.0618757604316 324.8939300649827L475.0618757604316 324.8939300649827L464.67604521950295 336.5971373411914Q458.9469882544479 330.65362369830007 451.9005545541128 327.00786017508324Q444.8234841855153 323.36209665186635 435.57121037029276 323.36209665186635L435.57121037029276 323.36209665186635Q425.18537982936414 323.36209665186635 416.69902272069965 327.43677353075583Q408.21266561203527 331.5114504096452 402.2691519691439 339.1399808069645Q396.29500165799027 346.7378745360215 392.986241485659 357.5526184326227Q389.6774813133277 368.36736232922397 389.6774813133277 381.8168596963853L389.6774813133277 381.8168596963853Q389.6774813133277 395.4808137413829 392.986241485659 406.4181043110334Q396.29500165799027 417.32475821242167 402.2691519691439 425.045198614528Q408.21266561203527 432.7656390166342 416.69902272069965 436.962862568573Q425.18537982936414 441.16008612051166 435.57121037029276 441.16008612051166L435.57121037029276 441.16008612051166Q445.4974908872866 441.16008612051166 453.3098412941798 436.962862568573Q461.15282836933534 432.7656390166342 468.19926206967045 425.045198614528L468.19926206967045 425.045198614528L478.5850926105992 436.2888558668017Q469.97618882888537 446.21513638379554 459.1614449322842 451.7297366710143Q448.34670103568294 457.244336958233 433.79428361107784 457.244336958233Z " fill="#5500aa" transform="matrix(0.6464777066203358,0,0,0.6464777066203359,0,52.88754376245919)"/><path d="M623.4316748191543 421.49556772805045L610.022924963446 421.49556772805045L610.022924963446 316.8186659619186L623.4316748191543 316.8186659619186L623.4316748191543 360.70184730787264L667.1375503818923 360.70184730787264L667.1375503818923 316.8186659619186L680.5463002376005 316.8186659619186L680.5463002376005 421.49556772805045L667.1375503818923 421.49556772805045L667.1375503818923 372.1823967711071L623.4316748191543 372.1823967711071L623.4316748191543 421.49556772805045ZM756.6769709059602 421.49556772805045L743.57850617088 421.49556772805045L743.57850617088 354.6291242327255L707.5189425093308 354.6291242327255L707.5189425093308 343.9464507939629L756.6769709059602 343.9464507939629L756.6769709059602 421.49556772805045ZM748.6982106612413 327.6564819609951L748.6982106612413 327.6564819609951Q744.2212396350378 327.6564819609951 741.1848780974643 324.8639158753435Q738.1485165598907 322.07134978969185 738.1485165598907 317.4613994260765L738.1485165598907 317.4613994260765Q738.1485165598907 312.82928583955913 741.1848780974643 310.0367197539075Q744.2212396350378 307.2441536682559 748.6982106612413 307.2441536682559L748.6982106612413 307.2441536682559Q753.1530184645427 307.2441536682559 756.1893800021162 310.0367197539075Q759.2257415396898 312.82928583955913 759.2257415396898 317.4613994260765L759.2257415396898 317.4613994260765Q759.2257415396898 322.07134978969185 756.1893800021162 324.8639158753435Q753.1530184645427 327.6564819609951 748.6982106612413 327.6564819609951ZM836.1321250096195 457.24484626897157L836.1321250096195 457.24484626897157Q819.0664433750817 457.24484626897157 809.735726533341 451.65971409766837Q800.3828464686983 446.0745819263651 800.3828464686983 435.70219360823046L800.3828464686983 435.70219360823046Q800.3828464686983 431.0700800217131 803.6630034581938 426.59310899550974Q806.9431604476894 422.13830119220836 813.1488628602485 418.45920619047683L813.1488628602485 418.45920619047683L813.1488628602485 417.8164727263189Q809.957358762361 416.06557811706114 807.5637306889453 413.0292165794876Q805.1701026155296 410.015018264816 805.1701026155296 405.0504563347686L805.1701026155296 405.0504563347686Q805.1701026155296 401.39352455593917 807.5637306889453 397.47063410228566Q809.957358762361 393.5699068715342 814.4343297885644 390.5335453339606L814.4343297885644 390.5335453339606L814.4343297885644 389.8908118698027Q810.4449496662049 386.8766135551311 807.6523835805533 381.84556195637776Q804.8598174949017 376.8145103576245 804.8598174949017 369.7887686976914L804.8598174949017 369.7887686976914Q804.8598174949017 363.4057605019163 807.3420984599253 358.30821923445694Q809.802216202047 353.18851474409564 813.9467388847204 349.59807263397215Q818.1134247902959 346.00763052384866 823.6099040699911 344.0129404626689Q829.1063833496864 342.0182504014892 835.3342489851475 342.0182504014892L835.3342489851475 342.0182504014892Q841.7172571809226 342.0182504014892 846.8369616712839 343.9464507939629L846.8369616712839 343.9464507939629L878.9071452104736 343.9464507939629L878.9071452104736 354.6291242327255L858.8051020383623 354.6291242327255Q861.509015232406 357.3552006496711 863.4150524019777 361.49972333234456Q865.3432527944515 365.644246015018 865.3432527944515 370.2763596015353L865.3432527944515 370.2763596015353Q865.3432527944515 376.5042252369965 863.0161143897418 381.44662394414183Q860.7111392079341 386.3890226512872 856.6331061939667 389.8243222010967Q852.5772364029012 393.25962175090626 847.058593900304 395.07700602886996Q841.5621146206087 396.9165535297357 835.3342489851475 396.9165535297357L835.3342489851475 396.9165535297357Q832.2978874475739 396.9165535297357 828.8847511206664 396.20733039687184Q825.4494515708568 395.47594404110595 822.2579474729694 394.0574977753781L822.2579474729694 394.0574977753781Q816.1852243978221 397.86957211452165 816.1852243978221 402.9892766048829L816.1852243978221 402.9892766048829Q816.1852243978221 407.6213901914003 820.4183999721035 409.771222812894Q824.651575546385 411.9210554343877 832.2978874475739 411.9210554343877L832.2978874475739 411.9210554343877L849.6960174256416 411.9210554343877Q864.7005193302936 411.9210554343877 871.9700564421486 416.06557811706114Q879.2174303311016 420.2101007997346 879.2174303311016 430.11706143692726L879.2174303311016 430.11706143692726Q879.2174303311016 435.5470510479165 876.181068793528 440.48944975506186Q873.1668704788565 445.4318484622072 867.5817383075532 449.1109434639387Q861.99660613625 452.7678752427682 854.017845891531 455.0063607558699Q846.039085646812 457.24484626897157 836.1321250096195 457.24484626897157ZM835.3342489851475 388.13991726054496L835.3342489851475 388.13991726054496Q842.8475815489245 388.13991726054496 848.0337757079918 383.1975185533996Q853.2199698670591 378.2551198462543 853.2199698670591 369.7887686976914L853.2199698670591 369.7887686976914Q853.2199698670591 365.79938857533193 851.7793603784294 362.4527419171304Q850.3387508897995 359.10609525892886 847.9451228163839 356.71246718551316Q845.5514947429681 354.3188391120975 842.2713377534726 352.96688251507567Q839.013343986879 351.59276269515186 835.3342489851475 351.59276269515186L835.3342489851475 351.59276269515186Q831.6773172063181 351.59276269515186 828.3971602168225 352.96688251507567Q825.1170032273269 354.3188391120975 822.7233751539112 356.71246718551316Q820.3297470804955 359.10609525892886 818.9113008147677 362.4527419171304Q817.470691326138 365.79938857533193 817.470691326138 369.7887686976914L817.470691326138 369.7887686976914Q817.470691326138 378.2551198462543 822.7233751539112 383.1975185533996Q827.9982222045866 388.13991726054496 835.3342489851475 388.13991726054496ZM837.0851435944053 447.67033397530884L837.0851435944053 447.67033397530884Q843.8006001337104 447.67033397530884 849.2305897446997 446.384867046993Q854.6384161327869 445.1215633415792 858.4726536948324 442.9495674971835Q862.3068912568779 440.7997348756898 864.3015813180576 438.0071687900382Q866.2962713792374 435.21460270438655 866.2962713792374 432.178241166813L866.2962713792374 432.178241166813Q866.2962713792374 426.59310899550974 861.9079532446419 424.687071825938Q857.5196351100466 422.7810346563663 848.5878562805417 422.7810346563663L848.5878562805417 422.7810346563663L833.4282118155758 422.7810346563663Q830.0815651573743 422.7810346563663 827.1116932885067 422.5372392044443Q824.163984642541 422.2934437525223 821.6152140088113 421.49556772805045L821.6152140088113 421.49556772805045Q816.0300818375081 424.531929265624 813.8802492160144 427.7899230322176Q811.7304165945208 431.0700800217131 811.7304165945208 434.41672667991463L811.7304165945208 434.41672667991463Q811.7304165945208 440.48944975506186 818.1799144590018 444.07989186518535Q824.651575546385 447.67033397530884 837.0851435944053 447.67033397530884ZM912.5730807986071 421.49556772805045L899.4967792864288 421.49556772805045L899.4967792864288 307.8868871324138L912.5730807986071 307.8868871324138L912.5730807986071 338.8267463036016L911.7752047741352 357.1778948664551L912.2627956779792 357.1778948664551Q918.3133555302243 350.639744110366 925.2504442985494 346.3400788673786Q932.2096962897764 342.0182504014892 941.2966176795951 342.0182504014892L941.2966176795951 342.0182504014892Q955.1707952162453 342.0182504014892 961.6424563036285 349.9305209775021Q968.1141173910116 357.82062833061303 968.1141173910116 373.31272113910893L968.1141173910116 373.31272113910893L968.1141173910116 421.49556772805045L955.0156526559313 421.49556772805045L955.0156526559313 375.0636157483667Q955.0156526559313 364.0484939660742 950.8711299732579 358.70715724669293Q946.7266072905845 353.36582052731166 937.1520949969217 353.36582052731166L937.1520949969217 353.36582052731166Q933.6281425555042 353.36582052731166 930.6804339095386 354.23018622048954Q927.732725263573 355.1167151365694 924.8515062863135 356.86760974582717Q921.9924505319557 358.61850435508495 918.9560889943823 361.2559278804226Q915.9197274568087 363.8933514057602 912.5730807986071 367.39514062427577L912.5730807986071 367.39514062427577L912.5730807986071 421.49556772805045ZM1036.3990071520643 423.4016048976222L1036.3990071520643 423.4016048976222Q1026.6693522980877 423.4016048976222 1018.3803069327407 419.74467311879266Q1010.0690983444919 416.06557811706114 1003.9298856006387 409.1284893487361Q997.7906728567855 402.191400580411 994.266720415368 392.0628077141984Q990.7649311968524 381.9120516250838 990.7649311968524 369.1460352335335L990.7649311968524 369.1460352335335Q990.7649311968524 356.5573246251992 994.266720415368 346.49522142769257Q997.7906728567855 336.4331182301859 1004.0185384922468 329.4295397931549Q1010.2242409048058 322.4037981332218 1018.8457346136827 318.6582134627843Q1027.4672283225595 314.89046556944487 1037.6844740803801 314.89046556944487L1037.6844740803801 314.89046556944487Q1047.1038438137289 314.89046556944487 1054.3512177026819 318.72470313149034Q1061.620754814537 322.5589406935358 1066.2528684010542 327.6564819609951L1066.2528684010542 327.6564819609951L1058.7395358372773 336.122833109558Q1054.5950131546037 331.82316786657054 1049.4974718871445 329.1857443412329Q1044.3777673967834 326.54832081589524 1037.6844740803801 326.54832081589524L1037.6844740803801 326.54832081589524Q1030.171141516603 326.54832081589524 1024.03192877275 329.49602946186087Q1017.8927160288968 332.4437381078265 1013.5930507859094 337.96238061042374Q1009.27122232002 343.45885989011896 1006.8775942466043 351.2824775745239Q1004.4839661731886 359.10609525892886 1004.4839661731886 368.83575011290554L1004.4839661731886 368.83575011290554Q1004.4839661731886 378.72054752719623 1006.8775942466043 386.6328181032091Q1009.27122232002 394.5229254563201 1013.5930507859094 400.10805762762334Q1017.8927160288968 405.69318979892654 1024.03192877275 408.72955133650015Q1030.171141516603 411.7659128740737 1037.6844740803801 411.7659128740737L1037.6844740803801 411.7659128740737Q1044.8653583006271 411.7659128740737 1050.5169801406364 408.72955133650015Q1056.1907652035477 405.69318979892654 1061.288306471007 400.10805762762334L1061.288306471007 400.10805762762334L1068.8016390347839 408.2419604326562Q1062.5737733993228 415.4228446529032 1054.7501557149178 419.4122247752627Q1046.9265380305128 423.4016048976222 1036.3990071520643 423.4016048976222ZM1124.0102272836584 423.4016048976222L1124.0102272836584 423.4016048976222Q1116.3417521595675 423.4016048976222 1109.4046633912424 420.6976917035785Q1102.4675746229173 417.9937785095349 1097.1927275722421 412.8075843504676Q1091.9400437444688 407.6213901914003 1088.8150293152871 400.0415679589173Q1085.7121781090077 392.46174572643434 1085.7121781090077 382.8872334327716L1085.7121781090077 382.8872334327716Q1085.7121781090077 373.135415355893 1088.8150293152871 365.55559312341Q1091.9400437444688 357.97577089092704 1097.1927275722421 352.72308706315374Q1102.4675746229173 347.44824001247844 1109.4046633912424 344.7443268184348Q1116.3417521595675 342.0182504014892 1124.0102272836584 342.0182504014892L1124.0102272836584 342.0182504014892Q1131.6787024077494 342.0182504014892 1138.6157911760745 344.7443268184348Q1145.5528799443996 347.44824001247844 1150.827726995075 352.72308706315374Q1156.080410822848 357.97577089092704 1159.2054252520297 365.55559312341Q1162.3082764583091 373.135415355893 1162.3082764583091 382.8872334327716L1162.3082764583091 382.8872334327716Q1162.3082764583091 392.46174572643434 1159.2054252520297 400.0415679589173Q1156.080410822848 407.6213901914003 1150.827726995075 412.8075843504676Q1145.5528799443996 417.9937785095349 1138.6157911760745 420.6976917035785Q1131.6787024077494 423.4016048976222 1124.0102272836584 423.4016048976222ZM1124.0102272836584 412.5637888985456L1124.0102272836584 412.5637888985456Q1129.5953594549617 412.5637888985456 1134.1388201498712 410.4139562770519Q1138.6822808447805 408.2419604326562 1141.962437834276 404.34123320190474Q1145.2425948237715 400.44050597115324 1146.9934894330295 395.010516360164Q1148.744384042287 389.58052674917474 1148.744384042287 382.8872334327716L1148.744384042287 382.8872334327716Q1148.744384042287 376.1717768934666 1146.9934894330295 370.6752976137713Q1145.2425948237715 365.156655111174 1141.962437834276 361.1672749888146Q1138.6822808447805 357.1778948664551 1134.1388201498712 355.0280622449614Q1129.5953594549617 352.8782296234677 1124.0102272836584 352.8782296234677L1124.0102272836584 352.8782296234677Q1118.4250951123554 352.8782296234677 1113.8816344174459 355.0280622449614Q1109.3381737225363 357.1778948664551 1106.0580167330409 361.1672749888146Q1102.7778597435454 365.156655111174 1101.0269651342876 370.6752976137713Q1099.2760705250298 376.1717768934666 1099.2760705250298 382.8872334327716L1099.2760705250298 382.8872334327716Q1099.2760705250298 389.58052674917474 1101.0269651342876 395.010516360164Q1102.7778597435454 400.44050597115324 1106.0580167330409 404.34123320190474Q1109.3381737225363 408.2419604326562 1113.8816344174459 410.4139562770519Q1118.4250951123554 412.5637888985456 1124.0102272836584 412.5637888985456ZM1215.123236633768 423.4016048976222L1215.123236633768 423.4016048976222Q1207.4769247325792 423.4016048976222 1201.3155487658241 420.6976917035785Q1195.1763360219707 417.9937785095349 1190.7215282186694 412.8075843504676Q1186.244557192466 407.6213901914003 1183.8509291190503 400.10805762762334Q1181.4573010456347 392.61688828674835 1181.4573010456347 382.8872334327716L1181.4573010456347 382.8872334327716Q1181.4573010456347 373.46786369942294 1184.4050096916003 365.88804146693997Q1187.3527183375659 358.30821923445694 1192.2286273760053 353.0333721837817Q1197.1045364144445 347.7806883560084 1203.4875446102196 344.8994693787488Q1209.8705528059947 342.0182504014892 1216.7189886827118 342.0182504014892L1216.7189886827118 342.0182504014892Q1223.744730342645 342.0182504014892 1229.2412096223402 344.6556739268268Q1234.7598521249374 347.2930974521645 1239.8573933923967 352.0803535989958L1239.8573933923967 352.0803535989958L1240.3449842962405 352.0803535989958L1239.7022508320829 337.71858515850175L1239.7022508320829 307.8868871324138L1252.778552344261 307.8868871324138L1252.778552344261 421.49556772805045L1241.9407363451846 421.49556772805045L1240.8104119771829 411.2783219702298L1240.3449842962405 411.2783219702298Q1235.5577281494093 416.22072067737514 1228.9309245017123 419.81116278749863Q1222.304120854015 423.4016048976222 1215.123236633768 423.4016048976222ZM1217.8493130507136 412.4086463382316L1217.8493130507136 412.4086463382316Q1229.3298625139482 412.4086463382316 1239.7022508320829 400.75079109178125L1239.7022508320829 400.75079109178125L1239.7022508320829 362.1424567965025Q1234.4274037814075 357.1778948664551 1229.4185154055563 355.1167151365694Q1224.3874638068028 353.0333721837817 1219.2677593164415 353.0333721837817L1219.2677593164415 353.0333721837817Q1214.1702180489822 353.0333721837817 1209.781899914387 355.1832048052754Q1205.3935817797915 357.3552006496711 1202.113424790296 361.2559278804226Q1198.8554310237023 365.156655111174 1196.9272306312287 370.5866447221633Q1195.0211934616568 376.0166343331526 1195.0211934616568 382.70992764955565L1195.0211934616568 382.70992764955565Q1195.0211934616568 396.7614109694218 1201.005263645196 404.5850286538267Q1206.9893338287352 412.4086463382316 1217.8493130507136 412.4086463382316ZM1320.287729303744 423.4016048976222L1320.287729303744 423.4016048976222Q1311.5110930345531 423.4016048976222 1303.93127080207 420.6976917035785Q1296.3514485695873 417.9937785095349 1290.6776635066758 412.71893145885963Q1285.0260416666665 407.4440844081843 1281.745884677171 399.86426217570136Q1278.4878909105776 392.2844399432184 1278.4878909105776 382.5547850892417L1278.4878909105776 382.5547850892417Q1278.4878909105776 373.135415355893 1281.745884677171 365.644246015018Q1285.0260416666665 358.153076674143 1290.522520946362 352.8782296234677Q1296.0411634489592 347.6033825727924 1303.1333947775984 344.8108164871408Q1310.2256261062373 342.0182504014892 1318.049243790642 342.0182504014892L1318.049243790642 342.0182504014892Q1326.360452378891 342.0182504014892 1332.9650928036863 344.6556739268268Q1339.5918964513833 347.2930974521645 1344.1353571462928 352.0803535989958Q1348.700981064104 356.86760974582717 1351.0946091375197 363.56090306223024Q1353.4882372109355 370.2763596015353 1353.4882372109355 378.4102624065682L1353.4882372109355 378.4102624065682Q1353.4882372109355 380.64874791967 1353.3109314277194 382.70992764955565Q1353.1557888674056 384.7932706023434 1352.8455037467775 386.3890226512872L1352.8455037467775 386.3890226512872L1291.7193349830695 386.3890226512872Q1293.0048019113856 399.6426299466814 1301.3825001683404 406.2472703714765Q1309.7601984252954 412.8740740191736 1321.8834813526878 412.8740740191736L1321.8834813526878 412.8740740191736Q1328.9092230126207 412.8740740191736 1334.56084485263 410.87938395799387Q1340.234629915541 408.88469389681416 1345.5094769662164 405.5380472386126L1345.5094769662164 405.5380472386126L1350.2967331130478 414.1595409474894Q1344.5342951585285 417.9937785095349 1337.1317787092617 420.6976917035785Q1329.7070990370926 423.4016048976222 1320.287729303744 423.4016048976222ZM1318.3816921341722 352.3906387196238L1318.3816921341722 352.3906387196238Q1313.5944359873408 352.3906387196238 1309.2061178527454 353.98639076856756Q1304.8177997181501 355.58214281751134 1301.2938472767323 358.5520146863789Q1297.7920580582168 361.49972333234456 1295.3984299848012 365.95453113564594Q1293.0048019113856 370.4315021618493 1292.0517833266 376.1717768934666L1292.0517833266 376.1717768934666L1341.5200968438571 376.1717768934666Q1340.722220819385 364.20363652638815 1334.56084485263 358.30821923445694Q1328.4216321087767 352.3906387196238 1318.3816921341722 352.3906387196238Z " fill="#5500aa" transform="matrix(0.6464777066203358,0,0,0.6464777066203359,0,52.88754376245919)"/></g></svg>